<svg width="507" height="358" viewBox="0 0 507 358" fill="none" xmlns="http://www.w3.org/2000/svg">
<mask id="path-1-outside-1_1_48" maskUnits="userSpaceOnUse" x="0" y="0" width="507" height="358" fill="black">
<rect fill="white" width="507" height="358"/>
<path fill-rule="evenodd" clip-rule="evenodd" d="M238.433 37.484C240.039 27.56 248.327 20 258.311 20C269.445 20 278.471 29.402 278.471 41C278.471 52.598 269.445 62 258.311 62C248.78 62 240.793 55.1096 238.692 45.8504L238.433 37.484ZM222.516 29.5352C227.216 13.5908 241.465 2 258.311 2C278.988 2 295.75 19.4612 295.75 41C295.75 41.6444 295.735 42.2852 295.705 42.9224L373.57 67.8788C380.098 56.4548 392.072 48.8 405.762 48.8C426.439 48.8 443.201 66.2612 443.201 87.8C443.201 99.8948 437.916 110.704 429.619 117.858L429.953 117.8L441.285 188.628C458.754 191.928 472 207.852 472 227C472 229.39 471.794 231.729 471.399 234H453.573C454.316 231.811 454.721 229.454 454.721 227C454.721 215.402 445.695 206 434.561 206C423.428 206 414.402 215.402 414.402 227C414.402 229.454 414.806 231.811 415.549 234H397.724C397.329 231.729 397.123 229.39 397.123 227C397.123 226.155 397.148 225.316 397.2 224.484L316.307 200.716C315.962 200.925 315.614 201.129 315.263 201.327L321.322 267.604C331.664 269.164 340.636 275.127 346.432 283.61L354 278.516V297C354 297.909 354.243 298.762 354.667 299.497L352.97 300.639C353.219 302.455 353.348 304.312 353.348 306.2C353.348 327.739 336.586 345.2 315.909 345.2C300.843 345.2 287.854 335.929 281.916 322.564L193.312 335.594C186.971 347.749 174.609 356 160.395 356C139.718 356 122.956 338.539 122.956 317C122.956 310.923 124.29 305.17 126.67 300.043L57.9322 214.118C52.4767 217.352 46.1649 219.2 39.4387 219.2C18.7618 219.2 2 201.739 2 180.2C2 158.661 18.7618 141.2 39.4387 141.2C41.9021 141.2 44.3099 141.448 46.6404 141.921L74.948 83.8664C68.9858 76.958 65.3578 67.8212 65.3578 57.8C65.3578 36.2612 82.12 18.8 102.797 18.8C114.251 18.8 124.502 24.158 131.37 32.5988L222.516 29.5352ZM76.8601 179C76.5107 166.957 70.9202 156.286 62.3838 149.38L89.2956 94.1876C93.4841 95.8748 98.0367 96.8 102.797 96.8C108.258 96.8 113.445 95.582 118.123 93.392L142.614 162.783C138.165 167.206 134.761 172.759 132.825 179H76.8601ZM70.5959 201.831L137.83 285.877C141.976 282.61 146.793 280.222 152.029 278.977L158.277 228.541C144.344 224.449 133.708 212.167 131.46 197H73.2354C72.4643 198.68 71.5811 200.294 70.5959 201.831ZM171.474 211.767L160.536 210.296L160.534 210.315C153.34 207.109 148.299 199.668 148.299 191C148.299 179.402 157.325 170 168.458 170C179.592 170 188.618 179.402 188.618 191C188.618 201.53 181.177 210.25 171.474 211.767ZM175.606 229.29L169.432 279.144C175.856 280.802 181.626 284.19 186.261 288.804L275.077 198.252C269.749 194.101 265.517 188.505 262.917 182.022L204.803 200.4C201.326 215.032 189.919 226.407 175.606 229.29ZM204.8 181.59L260.142 164.089C260.605 157.557 262.612 151.473 265.783 146.232L135.276 77.2112C134.414 78.7712 133.453 80.264 132.4 81.6788L157.785 153.608C161.168 152.562 164.75 152 168.458 152C186.02 152 200.758 164.596 204.8 181.59ZM221.404 47.582L139.55 50.3324C139.999 52.7492 140.235 55.2464 140.235 57.8C140.235 58.412 140.221 59.0204 140.195 59.6252L279.035 133.053C280.915 131.942 282.896 130.996 284.961 130.233L267.67 78.7712C264.679 79.574 261.543 80 258.311 80C239.788 80 224.407 65.9864 221.404 47.582ZM195.794 304.27L292.514 205.66C294.138 205.885 295.795 206 297.478 206C297.764 206 298.048 205.996 298.332 205.99L304.109 269.176C289.593 274.195 279.02 288.218 278.491 304.89L197.832 316.752C197.807 312.384 197.091 308.186 195.794 304.27ZM334.917 167C334.917 173.93 333.182 180.439 330.138 186.079L402.26 207.268C407.019 198.835 414.734 192.429 423.923 189.597L413.734 125.914C411.165 126.494 408.498 126.8 405.762 126.8C398.501 126.8 391.722 124.646 385.983 120.919L334.846 164.6C334.894 165.393 334.917 166.194 334.917 167ZM329.148 146.191L373.772 108.072C370.315 102.164 368.324 95.2244 368.324 87.8C368.324 86.8784 368.355 85.9652 368.415 85.0604L290.898 60.2144C288.844 63.9872 286.204 67.3676 283.105 70.2224L302.641 128.368C313.799 129.972 323.386 136.695 329.148 146.191ZM82.6373 57.8C82.6373 46.202 91.6629 36.8 102.797 36.8C113.93 36.8 122.956 46.202 122.956 57.8C122.956 69.398 113.93 78.8 102.797 78.8C91.6629 78.8 82.6373 69.398 82.6373 57.8ZM140.235 317C140.235 305.402 149.261 296 160.395 296C171.528 296 180.554 305.402 180.554 317C180.554 328.598 171.528 338 160.395 338C149.261 338 140.235 328.598 140.235 317ZM315.909 285.2C304.776 285.2 295.75 294.602 295.75 306.2C295.75 317.798 304.776 327.2 315.909 327.2C327.043 327.2 336.069 317.798 336.069 306.2C336.069 294.602 327.043 285.2 315.909 285.2ZM277.319 167C277.319 155.402 286.344 146 297.478 146C308.612 146 317.637 155.402 317.637 167C317.637 178.598 308.612 188 297.478 188C286.344 188 277.319 178.598 277.319 167ZM405.762 66.8C394.629 66.8 385.603 76.202 385.603 87.8C385.603 99.398 394.629 108.8 405.762 108.8C416.896 108.8 425.922 99.398 425.922 87.8C425.922 76.202 416.896 66.8 405.762 66.8ZM39.4387 159.2C28.305 159.2 19.2794 168.602 19.2794 180.2C19.2794 191.798 28.305 201.2 39.4387 201.2C50.5724 201.2 59.598 191.798 59.598 180.2C59.598 168.602 50.5724 159.2 39.4387 159.2ZM394.22 248.32C390.007 246.293 384.274 245.28 377.02 245.28C376.54 245.28 375.82 245.227 374.86 245.12C373.687 245.013 372.754 244.96 372.06 244.96C370.887 244.96 369.74 245.36 368.62 246.16C367.5 246.907 366.94 247.84 366.94 248.96C366.94 250.72 367.02 252.453 367.18 254.16C367.394 255.867 367.527 256.907 367.58 257.28C367.954 260.16 368.247 263.067 368.46 266C368.674 268.88 368.78 272.533 368.78 276.96C368.78 280.907 368.594 284.64 368.22 288.16C368.06 288.107 367.74 288.08 367.26 288.08C366.407 288.08 365.607 288.32 364.86 288.8C364.167 289.227 363.82 289.84 363.82 290.64C363.82 292.613 365.287 294.027 368.22 294.88C371.154 295.68 374.434 296.08 378.06 296.08C382.86 296.08 386.807 295.707 389.9 294.96C393.047 294.16 395.527 293.147 397.34 291.92C399.207 290.693 401.18 289.093 403.26 287.12C405.234 285.307 406.834 282.933 408.06 280C409.287 277.013 409.9 274.16 409.9 271.44C409.9 267.76 409.34 264.613 408.22 262C407.1 259.333 405.66 256.987 403.9 254.96C401.714 252.507 398.487 250.293 394.22 248.32ZM381.02 288.88C378.94 288.88 377.26 288.773 375.98 288.56C376.567 285.253 376.86 280.853 376.86 275.36C376.86 271.573 376.7 266.587 376.38 260.4C376.274 258.8 376.22 257.68 376.22 257.04C376.06 255.12 375.98 253.52 375.98 252.24C380.034 252.24 383.5 252.533 386.38 253.12C389.26 253.653 391.687 254.533 393.66 255.76C396.327 257.413 398.3 259.52 399.58 262.08C400.86 264.64 401.5 267.733 401.5 271.36C401.5 274.827 400.54 277.893 398.62 280.56C396.7 283.173 394.167 285.227 391.02 286.72C387.874 288.16 384.54 288.88 381.02 288.88ZM452.566 291.84C453.046 292.907 453.633 293.893 454.326 294.8C455.126 295.867 456.299 296.4 457.846 296.4C459.073 296.4 460.059 296.08 460.806 295.44C461.606 294.747 462.006 293.76 462.006 292.48C462.006 291.947 461.579 290.987 460.726 289.6C459.393 287.467 458.166 285.12 457.046 282.56C455.979 279.947 454.699 276.72 453.206 272.88L451.526 268.64C449.499 263.36 447.819 259.227 446.486 256.24C445.206 253.253 443.659 250.347 441.846 247.52C441.313 246.613 440.913 246.027 440.646 245.76C440.379 245.44 440.006 245.227 439.526 245.12C439.099 244.96 438.379 244.88 437.366 244.88C436.459 244.88 435.633 245.12 434.886 245.6C434.139 246.027 433.606 246.56 433.286 247.2C430.886 251.573 428.939 255.36 427.446 258.56C426.006 261.76 424.406 265.6 422.646 270.08L419.446 277.92C417.686 281.707 416.326 284.747 415.366 287.04C414.459 289.28 413.793 291.413 413.366 293.44C413.366 294.347 413.846 295.067 414.806 295.6C415.819 296.08 416.913 296.32 418.086 296.32C419.473 296.32 420.406 295.92 420.886 295.12C421.579 293.947 422.406 291.973 423.366 289.2C424.059 287.28 424.619 285.84 425.046 284.88C425.526 283.92 426.086 283.013 426.726 282.16C428.326 282.16 430.459 282.267 433.126 282.48C433.819 282.48 434.859 282.533 436.246 282.64C437.686 282.693 438.993 282.72 440.166 282.72C442.299 282.72 445.046 282.48 448.406 282C449.046 282.96 449.606 284.107 450.086 285.44L451.046 287.84C451.579 289.387 452.086 290.72 452.566 291.84ZM442.406 266C444.006 270.48 445.233 273.627 446.086 275.44C444.486 275.813 442.273 276 439.446 276C435.499 276 431.819 275.787 428.406 275.36C430.113 270.613 431.633 266.987 432.966 264.48C434.939 260.427 436.433 257.12 437.446 254.56C439.099 257.387 440.753 261.2 442.406 266ZM503.338 288.32C504.404 286.773 504.938 284.747 504.938 282.24C504.938 279.36 504.324 277.067 503.098 275.36C501.924 273.653 500.058 272.027 497.498 270.48C495.258 269.093 492.938 267.893 490.538 266.88C488.191 265.867 485.231 264.667 481.658 263.28C478.298 262.107 476.618 260.587 476.618 258.72C476.618 256.853 477.444 255.44 479.098 254.48C480.751 253.467 482.644 252.96 484.778 252.96C487.018 252.96 488.884 253.28 490.378 253.92C491.924 254.56 492.804 254.907 493.018 254.96C493.818 255.333 494.644 256.08 495.498 257.2C496.138 257.947 496.671 258.507 497.098 258.88C497.524 259.253 497.951 259.44 498.378 259.44C500.138 259.44 501.364 259.067 502.058 258.32C502.804 257.573 503.178 256.72 503.178 255.76C503.178 254.16 502.618 252.827 501.498 251.76C500.378 250.693 498.644 249.493 496.298 248.16C494.751 247.253 493.178 246.56 491.578 246.08C489.978 245.547 488.084 245.28 485.898 245.28C484.724 245.28 482.964 245.6 480.618 246.24C478.271 246.827 476.564 247.387 475.498 247.92C473.471 248.88 471.738 250.347 470.298 252.32C468.911 254.24 468.218 256.213 468.218 258.24C468.218 260.48 468.911 262.613 470.298 264.64C471.684 266.667 473.791 268.373 476.618 269.76C480.778 271.787 483.898 273.173 485.978 273.92C489.391 275.04 492.004 276.293 493.818 277.68C495.684 279.067 496.618 280.8 496.618 282.88C496.618 284.053 495.631 285.253 493.658 286.48C491.258 287.92 488.884 288.64 486.538 288.64C484.031 288.64 481.844 288.107 479.978 287.04C478.164 285.92 476.591 284.187 475.258 281.84C474.778 280.987 474.218 280.32 473.578 279.84C472.938 279.36 472.244 279.12 471.498 279.12C470.058 279.12 469.018 279.467 468.378 280.16C467.738 280.853 467.418 281.893 467.418 283.28C467.418 285.04 467.871 286.533 468.778 287.76C469.738 288.933 471.418 290.507 473.818 292.48L475.178 293.68C476.351 294.213 477.871 294.773 479.738 295.36C481.658 295.893 483.338 296.16 484.778 296.16C487.124 296.16 489.444 295.893 491.738 295.36C494.031 294.773 496.058 293.947 497.818 292.88C500.431 291.387 502.271 289.867 503.338 288.32Z"/>
</mask>
<path fill-rule="evenodd" clip-rule="evenodd" d="M238.433 37.484C240.039 27.56 248.327 20 258.311 20C269.445 20 278.471 29.402 278.471 41C278.471 52.598 269.445 62 258.311 62C248.78 62 240.793 55.1096 238.692 45.8504L238.433 37.484ZM222.516 29.5352C227.216 13.5908 241.465 2 258.311 2C278.988 2 295.75 19.4612 295.75 41C295.75 41.6444 295.735 42.2852 295.705 42.9224L373.57 67.8788C380.098 56.4548 392.072 48.8 405.762 48.8C426.439 48.8 443.201 66.2612 443.201 87.8C443.201 99.8948 437.916 110.704 429.619 117.858L429.953 117.8L441.285 188.628C458.754 191.928 472 207.852 472 227C472 229.39 471.794 231.729 471.399 234H453.573C454.316 231.811 454.721 229.454 454.721 227C454.721 215.402 445.695 206 434.561 206C423.428 206 414.402 215.402 414.402 227C414.402 229.454 414.806 231.811 415.549 234H397.724C397.329 231.729 397.123 229.39 397.123 227C397.123 226.155 397.148 225.316 397.2 224.484L316.307 200.716C315.962 200.925 315.614 201.129 315.263 201.327L321.322 267.604C331.664 269.164 340.636 275.127 346.432 283.61L354 278.516V297C354 297.909 354.243 298.762 354.667 299.497L352.97 300.639C353.219 302.455 353.348 304.312 353.348 306.2C353.348 327.739 336.586 345.2 315.909 345.2C300.843 345.2 287.854 335.929 281.916 322.564L193.312 335.594C186.971 347.749 174.609 356 160.395 356C139.718 356 122.956 338.539 122.956 317C122.956 310.923 124.29 305.17 126.67 300.043L57.9322 214.118C52.4767 217.352 46.1649 219.2 39.4387 219.2C18.7618 219.2 2 201.739 2 180.2C2 158.661 18.7618 141.2 39.4387 141.2C41.9021 141.2 44.3099 141.448 46.6404 141.921L74.948 83.8664C68.9858 76.958 65.3578 67.8212 65.3578 57.8C65.3578 36.2612 82.12 18.8 102.797 18.8C114.251 18.8 124.502 24.158 131.37 32.5988L222.516 29.5352ZM76.8601 179C76.5107 166.957 70.9202 156.286 62.3838 149.38L89.2956 94.1876C93.4841 95.8748 98.0367 96.8 102.797 96.8C108.258 96.8 113.445 95.582 118.123 93.392L142.614 162.783C138.165 167.206 134.761 172.759 132.825 179H76.8601ZM70.5959 201.831L137.83 285.877C141.976 282.61 146.793 280.222 152.029 278.977L158.277 228.541C144.344 224.449 133.708 212.167 131.46 197H73.2354C72.4643 198.68 71.5811 200.294 70.5959 201.831ZM171.474 211.767L160.536 210.296L160.534 210.315C153.34 207.109 148.299 199.668 148.299 191C148.299 179.402 157.325 170 168.458 170C179.592 170 188.618 179.402 188.618 191C188.618 201.53 181.177 210.25 171.474 211.767ZM175.606 229.29L169.432 279.144C175.856 280.802 181.626 284.19 186.261 288.804L275.077 198.252C269.749 194.101 265.517 188.505 262.917 182.022L204.803 200.4C201.326 215.032 189.919 226.407 175.606 229.29ZM204.8 181.59L260.142 164.089C260.605 157.557 262.612 151.473 265.783 146.232L135.276 77.2112C134.414 78.7712 133.453 80.264 132.4 81.6788L157.785 153.608C161.168 152.562 164.75 152 168.458 152C186.02 152 200.758 164.596 204.8 181.59ZM221.404 47.582L139.55 50.3324C139.999 52.7492 140.235 55.2464 140.235 57.8C140.235 58.412 140.221 59.0204 140.195 59.6252L279.035 133.053C280.915 131.942 282.896 130.996 284.961 130.233L267.67 78.7712C264.679 79.574 261.543 80 258.311 80C239.788 80 224.407 65.9864 221.404 47.582ZM195.794 304.27L292.514 205.66C294.138 205.885 295.795 206 297.478 206C297.764 206 298.048 205.996 298.332 205.99L304.109 269.176C289.593 274.195 279.02 288.218 278.491 304.89L197.832 316.752C197.807 312.384 197.091 308.186 195.794 304.27ZM334.917 167C334.917 173.93 333.182 180.439 330.138 186.079L402.26 207.268C407.019 198.835 414.734 192.429 423.923 189.597L413.734 125.914C411.165 126.494 408.498 126.8 405.762 126.8C398.501 126.8 391.722 124.646 385.983 120.919L334.846 164.6C334.894 165.393 334.917 166.194 334.917 167ZM329.148 146.191L373.772 108.072C370.315 102.164 368.324 95.2244 368.324 87.8C368.324 86.8784 368.355 85.9652 368.415 85.0604L290.898 60.2144C288.844 63.9872 286.204 67.3676 283.105 70.2224L302.641 128.368C313.799 129.972 323.386 136.695 329.148 146.191ZM82.6373 57.8C82.6373 46.202 91.6629 36.8 102.797 36.8C113.93 36.8 122.956 46.202 122.956 57.8C122.956 69.398 113.93 78.8 102.797 78.8C91.6629 78.8 82.6373 69.398 82.6373 57.8ZM140.235 317C140.235 305.402 149.261 296 160.395 296C171.528 296 180.554 305.402 180.554 317C180.554 328.598 171.528 338 160.395 338C149.261 338 140.235 328.598 140.235 317ZM315.909 285.2C304.776 285.2 295.75 294.602 295.75 306.2C295.75 317.798 304.776 327.2 315.909 327.2C327.043 327.2 336.069 317.798 336.069 306.2C336.069 294.602 327.043 285.2 315.909 285.2ZM277.319 167C277.319 155.402 286.344 146 297.478 146C308.612 146 317.637 155.402 317.637 167C317.637 178.598 308.612 188 297.478 188C286.344 188 277.319 178.598 277.319 167ZM405.762 66.8C394.629 66.8 385.603 76.202 385.603 87.8C385.603 99.398 394.629 108.8 405.762 108.8C416.896 108.8 425.922 99.398 425.922 87.8C425.922 76.202 416.896 66.8 405.762 66.8ZM39.4387 159.2C28.305 159.2 19.2794 168.602 19.2794 180.2C19.2794 191.798 28.305 201.2 39.4387 201.2C50.5724 201.2 59.598 191.798 59.598 180.2C59.598 168.602 50.5724 159.2 39.4387 159.2ZM394.22 248.32C390.007 246.293 384.274 245.28 377.02 245.28C376.54 245.28 375.82 245.227 374.86 245.12C373.687 245.013 372.754 244.96 372.06 244.96C370.887 244.96 369.74 245.36 368.62 246.16C367.5 246.907 366.94 247.84 366.94 248.96C366.94 250.72 367.02 252.453 367.18 254.16C367.394 255.867 367.527 256.907 367.58 257.28C367.954 260.16 368.247 263.067 368.46 266C368.674 268.88 368.78 272.533 368.78 276.96C368.78 280.907 368.594 284.64 368.22 288.16C368.06 288.107 367.74 288.08 367.26 288.08C366.407 288.08 365.607 288.32 364.86 288.8C364.167 289.227 363.82 289.84 363.82 290.64C363.82 292.613 365.287 294.027 368.22 294.88C371.154 295.68 374.434 296.08 378.06 296.08C382.86 296.08 386.807 295.707 389.9 294.96C393.047 294.16 395.527 293.147 397.34 291.92C399.207 290.693 401.18 289.093 403.26 287.12C405.234 285.307 406.834 282.933 408.06 280C409.287 277.013 409.9 274.16 409.9 271.44C409.9 267.76 409.34 264.613 408.22 262C407.1 259.333 405.66 256.987 403.9 254.96C401.714 252.507 398.487 250.293 394.22 248.32ZM381.02 288.88C378.94 288.88 377.26 288.773 375.98 288.56C376.567 285.253 376.86 280.853 376.86 275.36C376.86 271.573 376.7 266.587 376.38 260.4C376.274 258.8 376.22 257.68 376.22 257.04C376.06 255.12 375.98 253.52 375.98 252.24C380.034 252.24 383.5 252.533 386.38 253.12C389.26 253.653 391.687 254.533 393.66 255.76C396.327 257.413 398.3 259.52 399.58 262.08C400.86 264.64 401.5 267.733 401.5 271.36C401.5 274.827 400.54 277.893 398.62 280.56C396.7 283.173 394.167 285.227 391.02 286.72C387.874 288.16 384.54 288.88 381.02 288.88ZM452.566 291.84C453.046 292.907 453.633 293.893 454.326 294.8C455.126 295.867 456.299 296.4 457.846 296.4C459.073 296.4 460.059 296.08 460.806 295.44C461.606 294.747 462.006 293.76 462.006 292.48C462.006 291.947 461.579 290.987 460.726 289.6C459.393 287.467 458.166 285.12 457.046 282.56C455.979 279.947 454.699 276.72 453.206 272.88L451.526 268.64C449.499 263.36 447.819 259.227 446.486 256.24C445.206 253.253 443.659 250.347 441.846 247.52C441.313 246.613 440.913 246.027 440.646 245.76C440.379 245.44 440.006 245.227 439.526 245.12C439.099 244.96 438.379 244.88 437.366 244.88C436.459 244.88 435.633 245.12 434.886 245.6C434.139 246.027 433.606 246.56 433.286 247.2C430.886 251.573 428.939 255.36 427.446 258.56C426.006 261.76 424.406 265.6 422.646 270.08L419.446 277.92C417.686 281.707 416.326 284.747 415.366 287.04C414.459 289.28 413.793 291.413 413.366 293.44C413.366 294.347 413.846 295.067 414.806 295.6C415.819 296.08 416.913 296.32 418.086 296.32C419.473 296.32 420.406 295.92 420.886 295.12C421.579 293.947 422.406 291.973 423.366 289.2C424.059 287.28 424.619 285.84 425.046 284.88C425.526 283.92 426.086 283.013 426.726 282.16C428.326 282.16 430.459 282.267 433.126 282.48C433.819 282.48 434.859 282.533 436.246 282.64C437.686 282.693 438.993 282.72 440.166 282.72C442.299 282.72 445.046 282.48 448.406 282C449.046 282.96 449.606 284.107 450.086 285.44L451.046 287.84C451.579 289.387 452.086 290.72 452.566 291.84ZM442.406 266C444.006 270.48 445.233 273.627 446.086 275.44C444.486 275.813 442.273 276 439.446 276C435.499 276 431.819 275.787 428.406 275.36C430.113 270.613 431.633 266.987 432.966 264.48C434.939 260.427 436.433 257.12 437.446 254.56C439.099 257.387 440.753 261.2 442.406 266ZM503.338 288.32C504.404 286.773 504.938 284.747 504.938 282.24C504.938 279.36 504.324 277.067 503.098 275.36C501.924 273.653 500.058 272.027 497.498 270.48C495.258 269.093 492.938 267.893 490.538 266.88C488.191 265.867 485.231 264.667 481.658 263.28C478.298 262.107 476.618 260.587 476.618 258.72C476.618 256.853 477.444 255.44 479.098 254.48C480.751 253.467 482.644 252.96 484.778 252.96C487.018 252.96 488.884 253.28 490.378 253.92C491.924 254.56 492.804 254.907 493.018 254.96C493.818 255.333 494.644 256.08 495.498 257.2C496.138 257.947 496.671 258.507 497.098 258.88C497.524 259.253 497.951 259.44 498.378 259.44C500.138 259.44 501.364 259.067 502.058 258.32C502.804 257.573 503.178 256.72 503.178 255.76C503.178 254.16 502.618 252.827 501.498 251.76C500.378 250.693 498.644 249.493 496.298 248.16C494.751 247.253 493.178 246.56 491.578 246.08C489.978 245.547 488.084 245.28 485.898 245.28C484.724 245.28 482.964 245.6 480.618 246.24C478.271 246.827 476.564 247.387 475.498 247.92C473.471 248.88 471.738 250.347 470.298 252.32C468.911 254.24 468.218 256.213 468.218 258.24C468.218 260.48 468.911 262.613 470.298 264.64C471.684 266.667 473.791 268.373 476.618 269.76C480.778 271.787 483.898 273.173 485.978 273.92C489.391 275.04 492.004 276.293 493.818 277.68C495.684 279.067 496.618 280.8 496.618 282.88C496.618 284.053 495.631 285.253 493.658 286.48C491.258 287.92 488.884 288.64 486.538 288.64C484.031 288.64 481.844 288.107 479.978 287.04C478.164 285.92 476.591 284.187 475.258 281.84C474.778 280.987 474.218 280.32 473.578 279.84C472.938 279.36 472.244 279.12 471.498 279.12C470.058 279.12 469.018 279.467 468.378 280.16C467.738 280.853 467.418 281.893 467.418 283.28C467.418 285.04 467.871 286.533 468.778 287.76C469.738 288.933 471.418 290.507 473.818 292.48L475.178 293.68C476.351 294.213 477.871 294.773 479.738 295.36C481.658 295.893 483.338 296.16 484.778 296.16C487.124 296.16 489.444 295.893 491.738 295.36C494.031 294.773 496.058 293.947 497.818 292.88C500.431 291.387 502.271 289.867 503.338 288.32Z" fill="black"/>
<path d="M238.433 37.484L236.459 37.1645L236.428 37.3541L236.434 37.5459L238.433 37.484ZM238.692 45.8504L236.693 45.9123L236.699 46.105L236.742 46.293L238.692 45.8504ZM222.516 29.5352L222.584 31.5341L224.027 31.4856L224.435 30.1007L222.516 29.5352ZM295.705 42.9224L293.707 42.8285L293.635 44.3592L295.095 44.827L295.705 42.9224ZM373.57 67.8788L372.959 69.7834L374.502 70.2779L375.306 68.8711L373.57 67.8788ZM429.619 117.858L428.313 116.343L422.849 121.055L429.959 119.829L429.619 117.858ZM429.953 117.8L431.928 117.484L431.608 115.485L429.614 115.829L429.953 117.8ZM441.285 188.628L439.31 188.944L439.532 190.332L440.914 190.593L441.285 188.628ZM471.399 234V236H473.081L473.369 234.343L471.399 234ZM453.573 234L451.68 233.357L450.783 236H453.573V234ZM415.549 234V236H418.34L417.443 233.357L415.549 234ZM397.724 234L395.754 234.343L396.042 236H397.724V234ZM397.2 224.484L399.196 224.608L399.295 223.015L397.763 222.565L397.2 224.484ZM316.307 200.716L316.871 198.798L316.024 198.549L315.27 199.006L316.307 200.716ZM315.263 201.327L314.281 199.585L313.153 200.22L313.271 201.509L315.263 201.327ZM321.322 267.604L319.331 267.787L319.473 269.348L321.024 269.582L321.322 267.604ZM346.432 283.61L344.78 284.738L345.901 286.378L347.548 285.269L346.432 283.61ZM354 278.516H356V274.759L352.883 276.857L354 278.516ZM354.667 299.497L355.784 301.156L357.333 300.114L356.399 298.497L354.667 299.497ZM352.97 300.639L351.853 298.98L350.819 299.676L350.989 300.911L352.97 300.639ZM281.916 322.564L283.744 321.752L283.127 320.365L281.625 320.586L281.916 322.564ZM193.312 335.594L193.021 333.615L192.011 333.764L191.539 334.669L193.312 335.594ZM126.67 300.043L128.484 300.885L129.006 299.761L128.232 298.793L126.67 300.043ZM57.9322 214.118L59.4939 212.869L58.4079 211.511L56.9123 212.398L57.9322 214.118ZM46.6404 141.921L46.2428 143.881L47.7597 144.189L48.4381 142.798L46.6404 141.921ZM74.948 83.8664L76.7457 84.743L77.3236 83.5578L76.4621 82.5597L74.948 83.8664ZM131.37 32.5988L129.818 33.8611L130.445 34.631L131.437 34.5977L131.37 32.5988ZM62.3838 149.38L60.5861 148.504L59.8886 149.934L61.1259 150.935L62.3838 149.38ZM76.8601 179L74.8609 179.058L74.9172 181H76.8601V179ZM89.2956 94.1876L90.0429 92.3325L88.3145 91.6363L87.4979 93.3111L89.2956 94.1876ZM118.123 93.392L120.009 92.7264L119.275 90.6447L117.275 91.5807L118.123 93.392ZM142.614 162.783L144.024 164.202L144.921 163.31L144.5 162.118L142.614 162.783ZM132.825 179V181H134.298L134.735 179.593L132.825 179ZM137.83 285.877L136.268 287.126L137.508 288.676L139.068 287.448L137.83 285.877ZM70.5959 201.831L68.912 200.752L68.1378 201.96L69.0342 203.081L70.5959 201.831ZM152.029 278.977L152.492 280.923L153.843 280.601L154.014 279.223L152.029 278.977ZM158.277 228.541L160.262 228.787L160.471 227.101L158.841 226.622L158.277 228.541ZM131.46 197L133.438 196.707L133.185 195H131.46V197ZM73.2354 197V195H71.9528L71.4177 196.166L73.2354 197ZM160.536 210.296L160.803 208.314L158.79 208.043L158.55 210.06L160.536 210.296ZM171.474 211.767L171.208 213.749L171.496 213.788L171.783 213.743L171.474 211.767ZM160.534 210.315L159.72 212.142L162.199 213.247L162.52 210.552L160.534 210.315ZM169.432 279.144L167.447 278.898L167.231 280.641L168.932 281.08L169.432 279.144ZM175.606 229.29L175.211 227.329L173.799 227.613L173.621 229.044L175.606 229.29ZM186.261 288.804L184.85 290.221L186.278 291.643L187.689 290.204L186.261 288.804ZM275.077 198.252L276.505 199.652L278.074 198.052L276.306 196.674L275.077 198.252ZM262.917 182.022L264.773 181.277L264.083 179.555L262.314 180.115L262.917 182.022ZM204.803 200.4L204.2 198.493L203.119 198.834L202.857 199.937L204.803 200.4ZM260.142 164.089L260.745 165.996L262.041 165.586L262.137 164.23L260.142 164.089ZM204.8 181.59L202.855 182.052L203.352 184.145L205.403 183.497L204.8 181.59ZM265.783 146.232L267.494 147.267L268.591 145.454L266.718 144.464L265.783 146.232ZM135.276 77.2112L136.211 75.4432L134.475 74.525L133.525 76.2442L135.276 77.2112ZM132.4 81.6788L130.795 80.4848L130.159 81.3396L130.514 82.3444L132.4 81.6788ZM157.785 153.608L155.899 154.274L156.539 156.087L158.377 155.519L157.785 153.608ZM139.55 50.3324L139.483 48.3335L137.159 48.4116L137.584 50.6979L139.55 50.3324ZM221.404 47.582L223.377 47.2599L223.094 45.5241L221.336 45.5831L221.404 47.582ZM140.195 59.6252L138.197 59.5376L138.141 60.8017L139.26 61.3932L140.195 59.6252ZM279.035 133.053L278.1 134.821L279.089 135.344L280.053 134.775L279.035 133.053ZM284.961 130.233L285.654 132.109L287.475 131.436L286.857 129.596L284.961 130.233ZM267.67 78.7712L269.566 78.1342L268.967 76.3522L267.151 76.8396L267.67 78.7712ZM292.514 205.66L292.788 203.679L291.791 203.542L291.086 204.26L292.514 205.66ZM195.794 304.27L194.367 302.87L193.512 303.741L193.896 304.899L195.794 304.27ZM298.332 205.99L300.323 205.808L300.153 203.952L298.289 203.991L298.332 205.99ZM304.109 269.176L304.762 271.067L306.243 270.555L306.1 268.994L304.109 269.176ZM278.491 304.89L278.782 306.868L280.437 306.625L280.49 304.953L278.491 304.89ZM197.832 316.752L195.832 316.763L195.846 319.065L198.123 318.73L197.832 316.752ZM330.138 186.079L328.378 185.129L327.206 187.302L329.575 187.998L330.138 186.079ZM402.26 207.268L401.696 209.187L403.221 209.635L404.002 208.251L402.26 207.268ZM423.923 189.597L424.512 191.508L426.172 190.997L425.898 189.281L423.923 189.597ZM413.734 125.914L415.709 125.598L415.372 123.494L413.294 123.963L413.734 125.914ZM385.983 120.919L387.072 119.241L385.82 118.428L384.684 119.398L385.983 120.919ZM334.846 164.6L333.547 163.079L332.791 163.726L332.85 164.719L334.846 164.6ZM373.772 108.072L375.071 109.592L376.344 108.506L375.498 107.061L373.772 108.072ZM329.148 146.191L327.438 147.228L328.658 149.239L330.447 147.712L329.148 146.191ZM368.415 85.0604L370.41 85.1925L370.513 83.6329L369.025 83.1558L368.415 85.0604ZM290.898 60.2144L291.508 58.3098L289.933 57.8048L289.141 59.2581L290.898 60.2144ZM283.105 70.2224L281.75 68.7515L280.796 69.6301L281.209 70.8594L283.105 70.2224ZM302.641 128.368L300.745 129.005L301.137 130.173L302.357 130.348L302.641 128.368ZM394.22 248.32L393.353 250.122L393.367 250.129L393.381 250.135L394.22 248.32ZM374.86 245.12L375.081 243.132L375.061 243.13L375.041 243.128L374.86 245.12ZM368.62 246.16L369.73 247.824L369.757 247.806L369.783 247.787L368.62 246.16ZM367.18 254.16L365.189 254.347L365.192 254.377L365.196 254.408L367.18 254.16ZM367.58 257.28L369.564 257.023L369.562 257.01L369.56 256.997L367.58 257.28ZM368.46 266L366.466 266.145L366.466 266.148L368.46 266ZM368.22 288.16L367.588 290.057L369.947 290.844L370.209 288.371L368.22 288.16ZM364.86 288.8L365.909 290.503L365.925 290.493L365.942 290.482L364.86 288.8ZM368.22 294.88L367.662 296.8L367.678 296.805L367.694 296.81L368.22 294.88ZM389.9 294.96L390.37 296.904L390.381 296.901L390.393 296.898L389.9 294.96ZM397.34 291.92L396.242 290.249L396.231 290.256L396.22 290.263L397.34 291.92ZM403.26 287.12L401.907 285.647L401.895 285.658L401.884 285.669L403.26 287.12ZM408.06 280L409.906 280.772L409.91 280.76L408.06 280ZM408.22 262L406.376 262.774L406.379 262.781L406.382 262.788L408.22 262ZM403.9 254.96L405.41 253.649L405.402 253.639L405.393 253.629L403.9 254.96ZM375.98 288.56L374.011 288.211L373.658 290.201L375.651 290.533L375.98 288.56ZM376.38 260.4L378.378 260.297L378.377 260.282L378.376 260.267L376.38 260.4ZM376.22 257.04H378.22V256.957L378.213 256.874L376.22 257.04ZM375.98 252.24V250.24H373.98V252.24H375.98ZM386.38 253.12L385.981 255.08L385.999 255.083L386.016 255.087L386.38 253.12ZM393.66 255.76L392.604 257.459L392.606 257.46L393.66 255.76ZM398.62 280.56L400.232 281.744L400.238 281.736L400.243 281.729L398.62 280.56ZM391.02 286.72L391.853 288.539L391.865 288.533L391.878 288.527L391.02 286.72ZM454.326 294.8L455.926 293.6L455.92 293.593L455.915 293.585L454.326 294.8ZM452.566 291.84L450.728 292.628L450.735 292.644L450.742 292.661L452.566 291.84ZM460.806 295.44L462.108 296.959L462.116 296.951L460.806 295.44ZM460.726 289.6L462.429 288.552L462.422 288.54L460.726 289.6ZM457.046 282.56L455.194 283.316L455.204 283.339L455.214 283.362L457.046 282.56ZM453.206 272.88L455.07 272.155L455.065 272.143L453.206 272.88ZM451.526 268.64L449.659 269.357L449.663 269.367L449.667 269.377L451.526 268.64ZM446.486 256.24L444.648 257.028L444.654 257.042L444.66 257.055L446.486 256.24ZM441.846 247.52L440.122 248.534L440.142 248.567L440.163 248.6L441.846 247.52ZM440.646 245.76L439.109 247.04L439.168 247.11L439.232 247.174L440.646 245.76ZM439.526 245.12L438.824 246.993L438.955 247.042L439.092 247.072L439.526 245.12ZM434.886 245.6L435.878 247.336L435.924 247.311L435.967 247.282L434.886 245.6ZM433.286 247.2L435.039 248.162L435.058 248.129L435.075 248.094L433.286 247.2ZM427.446 258.56L425.634 257.714L425.628 257.727L425.622 257.739L427.446 258.56ZM422.646 270.08L424.498 270.836L424.503 270.824L424.507 270.811L422.646 270.08ZM419.446 277.92L421.26 278.763L421.28 278.72L421.298 278.676L419.446 277.92ZM415.366 287.04L413.521 286.268L413.516 286.279L413.512 286.29L415.366 287.04ZM413.366 293.44L411.409 293.028L411.366 293.232V293.44H413.366ZM414.806 295.6L413.835 297.348L413.891 297.38L413.95 297.407L414.806 295.6ZM420.886 295.12L422.601 296.149L422.608 296.137L420.886 295.12ZM423.366 289.2L421.485 288.521L421.48 288.533L421.476 288.546L423.366 289.2ZM425.046 284.88L423.257 283.986L423.237 284.026L423.218 284.068L425.046 284.88ZM426.726 282.16V280.16H425.726L425.126 280.96L426.726 282.16ZM433.126 282.48L432.966 284.474L433.046 284.48H433.126V282.48ZM436.246 282.64L436.093 284.634L436.132 284.637L436.172 284.639L436.246 282.64ZM448.406 282L450.07 280.891L449.371 279.842L448.123 280.02L448.406 282ZM450.086 285.44L448.204 286.117L448.216 286.15L448.229 286.183L450.086 285.44ZM451.046 287.84L452.937 287.188L452.921 287.142L452.903 287.097L451.046 287.84ZM446.086 275.44L446.54 277.388L448.948 276.826L447.896 274.588L446.086 275.44ZM442.406 266L440.515 266.651L440.519 266.662L440.522 266.673L442.406 266ZM428.406 275.36L426.524 274.683L425.678 277.035L428.158 277.345L428.406 275.36ZM432.966 264.48L434.732 265.419L434.748 265.388L434.764 265.355L432.966 264.48ZM437.446 254.56L439.172 253.55L437.098 250.004L435.586 253.824L437.446 254.56ZM503.338 288.32L504.984 289.455L504.984 289.455L503.338 288.32ZM503.098 275.36L501.45 276.493L501.462 276.51L501.474 276.527L503.098 275.36ZM497.498 270.48L496.445 272.181L496.454 272.186L496.464 272.192L497.498 270.48ZM490.538 266.88L489.745 268.716L489.752 268.719L489.76 268.723L490.538 266.88ZM481.658 263.28L482.381 261.415L482.349 261.403L482.317 261.392L481.658 263.28ZM479.098 254.48L480.102 256.21L480.123 256.198L480.143 256.185L479.098 254.48ZM490.378 253.92L489.59 255.758L489.602 255.763L489.613 255.768L490.378 253.92ZM493.018 254.96L493.864 253.148L493.689 253.066L493.503 253.02L493.018 254.96ZM495.498 257.2L493.907 258.412L493.942 258.458L493.979 258.502L495.498 257.2ZM497.098 258.88L495.781 260.385L495.781 260.385L497.098 258.88ZM502.058 258.32L500.644 256.906L500.617 256.932L500.592 256.959L502.058 258.32ZM501.498 251.76L500.118 253.208L500.119 253.208L501.498 251.76ZM496.298 248.16L495.286 249.885L495.298 249.892L495.31 249.899L496.298 248.16ZM491.578 246.08L490.945 247.977L490.974 247.987L491.003 247.996L491.578 246.08ZM480.618 246.24L481.103 248.18L481.124 248.175L481.144 248.17L480.618 246.24ZM475.498 247.92L476.354 249.727L476.373 249.718L476.392 249.709L475.498 247.92ZM470.298 252.32L468.682 251.141L468.676 251.149L470.298 252.32ZM470.298 264.64L471.948 263.511L471.948 263.511L470.298 264.64ZM476.618 269.76L475.737 271.556L475.742 271.558L476.618 269.76ZM485.978 273.92L485.302 275.802L485.328 275.812L485.354 275.82L485.978 273.92ZM493.818 277.68L492.603 279.269L492.614 279.277L492.625 279.285L493.818 277.68ZM493.658 286.48L494.687 288.195L494.7 288.187L494.714 288.179L493.658 286.48ZM479.978 287.04L478.927 288.742L478.956 288.76L478.986 288.777L479.978 287.04ZM475.258 281.84L473.515 282.821L473.519 282.828L475.258 281.84ZM473.578 279.84L474.778 278.24L474.778 278.24L473.578 279.84ZM468.378 280.16L466.908 278.803L466.908 278.803L468.378 280.16ZM468.778 287.76L467.169 288.949L467.199 288.988L467.23 289.027L468.778 287.76ZM473.818 292.48L475.141 290.98L475.115 290.957L475.088 290.935L473.818 292.48ZM475.178 293.68L473.855 295.18L474.078 295.377L474.35 295.501L475.178 293.68ZM479.738 295.36L479.138 297.268L479.17 297.278L479.203 297.287L479.738 295.36ZM491.738 295.36L492.191 297.308L492.212 297.303L492.233 297.298L491.738 295.36ZM497.818 292.88L496.826 291.144L496.803 291.156L496.781 291.17L497.818 292.88ZM258.311 18C247.271 18 238.209 26.3475 236.459 37.1645L240.407 37.8035C241.869 28.7725 249.383 22 258.311 22V18ZM280.471 41C280.471 28.3752 270.626 18 258.311 18V22C268.264 22 276.471 30.4288 276.471 41H280.471ZM258.311 64C270.626 64 280.471 53.6248 280.471 41H276.471C276.471 51.5712 268.264 60 258.311 60V64ZM236.742 46.293C239.033 56.39 247.773 64 258.311 64V60C249.787 60 242.554 53.8292 240.643 45.4078L236.742 46.293ZM236.434 37.5459L236.693 45.9123L240.691 45.7885L240.432 37.4221L236.434 37.5459ZM258.311 0C240.508 0 225.528 12.2444 220.598 28.9697L224.435 30.1007C228.905 14.9372 242.422 4 258.311 4V0ZM297.75 41C297.75 18.4344 280.169 0 258.311 0V4C277.807 4 293.75 20.488 293.75 41H297.75ZM297.703 43.0164C297.734 42.3475 297.75 41.6754 297.75 41H293.75C293.75 41.6134 293.736 42.2229 293.707 42.8285L297.703 43.0164ZM374.18 65.9742L296.315 41.0178L295.095 44.827L372.959 69.7834L374.18 65.9742ZM405.762 46.8C391.299 46.8 378.689 54.8896 371.833 66.8865L375.306 68.8711C381.507 58.02 392.846 50.8 405.762 50.8V46.8ZM445.201 87.8C445.201 65.2344 427.62 46.8 405.762 46.8V50.8C425.258 50.8 441.201 67.288 441.201 87.8H445.201ZM430.925 119.372C439.656 111.845 445.201 100.485 445.201 87.8H441.201C441.201 99.3046 436.176 109.564 428.313 116.343L430.925 119.372ZM429.614 115.829L429.279 115.887L429.959 119.829L430.293 119.771L429.614 115.829ZM443.26 188.312L431.928 117.484L427.979 118.116L439.31 188.944L443.26 188.312ZM474 227C474 206.93 460.108 190.148 441.657 186.662L440.914 190.593C457.399 193.707 470 208.773 470 227H474ZM473.369 234.343C473.784 231.959 474 229.505 474 227H470C470 229.274 469.804 231.499 469.428 233.657L473.369 234.343ZM453.573 236H471.399V232H453.573V236ZM452.721 227C452.721 229.234 452.353 231.373 451.68 233.357L455.467 234.643C456.28 232.248 456.721 229.675 456.721 227H452.721ZM434.561 208C444.514 208 452.721 216.429 452.721 227H456.721C456.721 214.375 446.876 204 434.561 204V208ZM416.402 227C416.402 216.429 424.608 208 434.561 208V204C422.247 204 412.402 214.375 412.402 227H416.402ZM417.443 233.357C416.77 231.373 416.402 229.234 416.402 227H412.402C412.402 229.675 412.843 232.248 413.655 234.643L417.443 233.357ZM397.724 236H415.549V232H397.724V236ZM395.123 227C395.123 229.505 395.339 231.959 395.754 234.343L399.694 233.657C399.319 231.499 399.123 229.274 399.123 227H395.123ZM395.204 224.359C395.149 225.235 395.123 226.115 395.123 227H399.123C399.123 226.195 399.147 225.398 399.196 224.608L395.204 224.359ZM315.743 202.635L396.636 226.403L397.763 222.565L316.871 198.798L315.743 202.635ZM316.245 203.07C316.616 202.86 316.982 202.646 317.343 202.427L315.27 199.006C314.942 199.205 314.613 199.398 314.281 199.585L316.245 203.07ZM323.314 267.422L317.255 201.145L313.271 201.509L319.331 267.787L323.314 267.422ZM348.083 282.482C341.994 273.569 332.545 267.275 321.621 265.627L321.024 269.582C330.782 271.054 339.278 276.685 344.78 284.738L348.083 282.482ZM352.883 276.857L345.315 281.951L347.548 285.269L355.117 280.175L352.883 276.857ZM356 297V278.516H352V297H356ZM356.399 298.497C356.146 298.058 356 297.549 356 297H352C352 298.27 352.34 299.467 352.935 300.497L356.399 298.497ZM354.087 302.298L355.784 301.156L353.55 297.838L351.853 298.98L354.087 302.298ZM355.348 306.2C355.348 304.221 355.213 302.273 354.952 300.368L350.989 300.911C351.225 302.637 351.348 304.404 351.348 306.2H355.348ZM315.909 347.2C337.767 347.2 355.348 328.766 355.348 306.2H351.348C351.348 326.712 335.405 343.2 315.909 343.2V347.2ZM280.088 323.377C286.321 337.403 299.989 347.2 315.909 347.2V343.2C301.697 343.2 289.388 334.454 283.744 321.752L280.088 323.377ZM193.603 337.573L282.207 324.543L281.625 320.586L193.021 333.615L193.603 337.573ZM160.395 358C175.413 358 188.428 349.28 195.085 336.519L191.539 334.669C185.515 346.217 173.804 354 160.395 354V358ZM120.956 317C120.956 339.566 138.537 358 160.395 358V354C140.899 354 124.956 337.512 124.956 317H120.956ZM124.856 299.201C122.355 304.589 120.956 310.628 120.956 317H124.956C124.956 311.218 126.225 305.752 128.484 300.885L124.856 299.201ZM56.3704 215.367L125.108 301.292L128.232 298.793L59.4939 212.869L56.3704 215.367ZM39.4387 221.2C46.5371 221.2 53.1996 219.249 58.9521 215.838L56.9123 212.398C51.7539 215.456 45.7927 217.2 39.4387 217.2V221.2ZM0 180.2C0 202.766 17.581 221.2 39.4387 221.2V217.2C19.9426 217.2 4 200.712 4 180.2H0ZM39.4387 139.2C17.581 139.2 0 157.634 0 180.2H4C4 159.688 19.9426 143.2 39.4387 143.2V139.2ZM47.0381 139.961C44.5779 139.462 42.0369 139.2 39.4387 139.2V143.2C41.7672 143.2 44.0419 143.435 46.2428 143.881L47.0381 139.961ZM73.1504 82.9899L44.8428 141.045L48.4381 142.798L76.7457 84.743L73.1504 82.9899ZM63.3578 57.8C63.3578 68.31 67.1642 77.9084 73.4339 85.1731L76.4621 82.5597C70.8074 76.0076 67.3578 67.3324 67.3578 57.8H63.3578ZM102.797 16.8C80.9392 16.8 63.3578 35.2344 63.3578 57.8H67.3578C67.3578 37.288 83.3008 20.8 102.797 20.8V16.8ZM132.921 31.3365C125.701 22.4626 114.894 16.8 102.797 16.8V20.8C113.607 20.8 123.303 25.8534 129.818 33.8611L132.921 31.3365ZM222.449 27.5363L131.303 30.5999L131.437 34.5977L222.584 31.5341L222.449 27.5363ZM61.1259 150.935C69.2139 157.479 74.5286 167.605 74.8609 179.058L78.8592 178.942C78.4927 166.309 72.6264 155.094 63.6417 147.826L61.1259 150.935ZM87.4979 93.3111L60.5861 148.504L64.1815 150.257L91.0933 95.0642L87.4979 93.3111ZM102.797 94.8C98.2982 94.8 93.999 93.9261 90.0429 92.3325L88.5483 96.0428C92.9692 97.8236 97.7751 98.8 102.797 98.8V94.8ZM117.275 91.5807C112.856 93.6498 107.957 94.8 102.797 94.8V98.8C108.559 98.8 114.035 97.5142 118.971 95.2034L117.275 91.5807ZM144.5 162.118L120.009 92.7264L116.237 94.0576L140.728 163.449L144.5 162.118ZM134.735 179.593C136.574 173.664 139.806 168.395 144.024 164.202L141.204 161.365C136.524 166.018 132.948 171.853 130.915 178.407L134.735 179.593ZM76.8601 181H132.825V177H76.8601V181ZM139.392 284.627L72.1577 200.582L69.0342 203.081L136.268 287.126L139.392 284.627ZM151.566 277.031C146.038 278.346 140.958 280.866 136.592 284.306L139.068 287.448C142.994 284.354 147.549 282.098 152.492 280.923L151.566 277.031ZM156.292 228.295L150.044 278.731L154.014 279.223L160.262 228.787L156.292 228.295ZM129.481 197.293C131.84 213.203 143.006 226.14 157.714 230.46L158.841 226.622C145.683 222.758 135.576 211.13 133.438 196.707L129.481 197.293ZM73.2354 199H131.46V195H73.2354V199ZM72.2798 202.91C73.3151 201.295 74.243 199.599 75.0531 197.834L71.4177 196.166C70.6855 197.761 69.8471 199.293 68.912 200.752L72.2798 202.91ZM160.27 212.278L171.208 213.749L171.741 209.785L160.803 208.314L160.27 212.278ZM162.52 210.552L162.522 210.532L158.55 210.06L158.548 210.079L162.52 210.552ZM146.299 191C146.299 200.449 151.798 208.611 159.72 212.142L161.348 208.488C154.882 205.607 150.299 198.886 150.299 191H146.299ZM168.458 168C156.144 168 146.299 178.375 146.299 191H150.299C150.299 180.429 158.505 172 168.458 172V168ZM190.618 191C190.618 178.375 180.773 168 168.458 168V172C178.411 172 186.618 180.429 186.618 191H190.618ZM171.783 213.743C182.504 212.067 190.618 202.47 190.618 191H186.618C186.618 200.59 179.85 208.434 171.165 209.791L171.783 213.743ZM171.417 279.389L177.591 229.535L173.621 229.044L167.447 278.898L171.417 279.389ZM187.672 287.386C182.797 282.532 176.716 278.958 169.932 277.207L168.932 281.08C174.997 282.646 180.456 285.847 184.85 290.221L187.672 287.386ZM273.649 196.851L184.833 287.403L187.689 290.204L276.505 199.652L273.649 196.851ZM261.06 182.766C263.791 189.575 268.239 195.459 273.848 199.829L276.306 196.674C271.259 192.742 267.242 187.435 264.773 181.277L261.06 182.766ZM205.406 202.307L263.52 183.929L262.314 180.115L204.2 198.493L205.406 202.307ZM176.001 231.25C191.119 228.206 203.101 216.213 206.749 200.862L202.857 199.937C199.551 213.852 188.719 224.609 175.211 227.329L176.001 231.25ZM259.539 162.182L204.197 179.683L205.403 183.497L260.745 165.996L259.539 162.182ZM264.072 145.196C260.739 150.705 258.633 157.095 258.147 163.947L262.137 164.23C262.577 158.02 264.484 152.241 267.494 147.267L264.072 145.196ZM134.341 78.9792L264.848 148L266.718 144.464L136.211 75.4432L134.341 78.9792ZM134.004 82.8728C135.111 81.3856 136.122 79.8169 137.027 78.1782L133.525 76.2442C132.707 77.7255 131.794 79.1424 130.795 80.4848L134.004 82.8728ZM159.671 152.942L134.286 81.0132L130.514 82.3444L155.899 154.274L159.671 152.942ZM168.458 150C164.547 150 160.765 150.593 157.194 151.697L158.377 155.519C161.57 154.531 164.953 154 168.458 154V150ZM206.746 181.127C202.507 163.305 187.019 150 168.458 150V154C185.021 154 199.01 165.888 202.855 182.052L206.746 181.127ZM139.617 52.3313L221.471 49.5809L221.336 45.5831L139.483 48.3335L139.617 52.3313ZM142.235 57.8C142.235 55.1229 141.988 52.5034 141.516 49.9669L137.584 50.6979C138.011 52.995 138.235 55.3699 138.235 57.8H142.235ZM142.193 59.7128C142.221 59.0797 142.235 58.4421 142.235 57.8H138.235C138.235 58.3819 138.222 58.9611 138.197 59.5376L142.193 59.7128ZM279.97 131.285L141.13 57.8572L139.26 61.3932L278.1 134.821L279.97 131.285ZM284.267 128.357C282.089 129.163 279.999 130.16 278.017 131.331L280.053 134.775C281.831 133.724 283.704 132.83 285.654 132.109L284.267 128.357ZM265.774 79.4082L283.065 130.87L286.857 129.596L269.566 78.1342L265.774 79.4082ZM258.311 82C261.719 82 265.03 81.5506 268.188 80.7028L267.151 76.8396C264.328 77.5974 261.366 78 258.311 78V82ZM219.43 47.9041C222.578 67.2003 238.733 82 258.311 82V78C240.843 78 226.235 64.7725 223.377 47.2599L219.43 47.9041ZM291.086 204.26L194.367 302.87L197.222 305.671L293.942 207.061L291.086 204.26ZM297.478 204C295.886 204 294.321 203.891 292.788 203.679L292.24 207.642C293.956 207.879 295.704 208 297.478 208V204ZM298.289 203.991C298.017 203.997 297.747 204 297.478 204V208C297.78 208 298.079 207.996 298.374 207.99L298.289 203.991ZM306.1 268.994L300.323 205.808L296.34 206.173L302.117 269.359L306.1 268.994ZM280.49 304.953C280.993 289.092 291.048 275.808 304.762 271.067L303.455 267.286C288.138 272.582 277.047 287.344 276.492 304.826L280.49 304.953ZM198.123 318.73L278.782 306.868L278.2 302.911L197.541 314.773L198.123 318.73ZM193.896 304.899C195.128 308.618 195.808 312.607 195.832 316.763L199.832 316.74C199.806 312.16 199.055 307.754 197.693 303.641L193.896 304.899ZM331.898 187.029C335.097 181.101 336.917 174.267 336.917 167H332.917C332.917 173.593 331.267 179.776 328.378 185.129L331.898 187.029ZM402.824 205.35L330.702 184.16L329.575 187.998L401.696 209.187L402.824 205.35ZM423.334 187.686C413.633 190.676 405.516 197.428 400.518 206.286L404.002 208.251C408.522 200.242 415.835 194.183 424.512 191.508L423.334 187.686ZM411.759 126.23L421.948 189.913L425.898 189.281L415.709 125.598L411.759 126.23ZM405.762 128.8C408.648 128.8 411.462 128.477 414.174 127.865L413.294 123.963C410.868 124.511 408.348 124.8 405.762 124.8V128.8ZM384.894 122.596C390.943 126.525 398.099 128.8 405.762 128.8V124.8C398.904 124.8 392.501 122.767 387.072 119.241L384.894 122.596ZM336.145 166.121L387.282 122.44L384.684 119.398L333.547 163.079L336.145 166.121ZM336.917 167C336.917 166.156 336.893 165.315 336.843 164.481L332.85 164.719C332.895 165.471 332.917 166.232 332.917 167H336.917ZM372.473 106.551L327.849 144.67L330.447 147.712L375.071 109.592L372.473 106.551ZM366.324 87.8C366.324 95.5855 368.413 102.873 372.046 109.082L375.498 107.061C372.218 101.455 370.324 94.8634 370.324 87.8H366.324ZM366.419 84.9283C366.356 85.8761 366.324 86.8334 366.324 87.8H370.324C370.324 86.9234 370.353 86.0543 370.41 85.1925L366.419 84.9283ZM290.287 62.119L367.804 86.965L369.025 83.1558L291.508 58.3098L290.287 62.119ZM284.46 71.6933C287.721 68.6893 290.496 65.1347 292.654 61.1707L289.141 59.2581C287.192 62.8397 284.687 66.046 281.75 68.7515L284.46 71.6933ZM304.537 127.731L285.001 69.5854L281.209 70.8594L300.745 129.005L304.537 127.731ZM330.857 145.153C324.805 135.18 314.713 128.082 302.925 126.389L302.357 130.348C312.884 131.861 321.966 138.21 327.438 147.228L330.857 145.153ZM102.797 34.8C90.4821 34.8 80.6373 45.1752 80.6373 57.8H84.6373C84.6373 47.2288 92.8437 38.8 102.797 38.8V34.8ZM124.956 57.8C124.956 45.1752 115.111 34.8 102.797 34.8V38.8C112.749 38.8 120.956 47.2288 120.956 57.8H124.956ZM102.797 80.8C115.111 80.8 124.956 70.4248 124.956 57.8H120.956C120.956 68.3712 112.749 76.8 102.797 76.8V80.8ZM80.6373 57.8C80.6373 70.4248 90.4821 80.8 102.797 80.8V76.8C92.8437 76.8 84.6373 68.3712 84.6373 57.8H80.6373ZM160.395 294C148.08 294 138.235 304.375 138.235 317H142.235C142.235 306.429 150.442 298 160.395 298V294ZM182.554 317C182.554 304.375 172.709 294 160.395 294V298C170.348 298 178.554 306.429 178.554 317H182.554ZM160.395 340C172.709 340 182.554 329.625 182.554 317H178.554C178.554 327.571 170.348 336 160.395 336V340ZM138.235 317C138.235 329.625 148.08 340 160.395 340V336C150.442 336 142.235 327.571 142.235 317H138.235ZM297.75 306.2C297.75 295.629 305.956 287.2 315.909 287.2V283.2C303.595 283.2 293.75 293.575 293.75 306.2H297.75ZM315.909 325.2C305.956 325.2 297.75 316.771 297.75 306.2H293.75C293.75 318.825 303.595 329.2 315.909 329.2V325.2ZM334.069 306.2C334.069 316.771 325.862 325.2 315.909 325.2V329.2C328.224 329.2 338.069 318.825 338.069 306.2H334.069ZM315.909 287.2C325.862 287.2 334.069 295.629 334.069 306.2H338.069C338.069 293.575 328.224 283.2 315.909 283.2V287.2ZM297.478 144C285.163 144 275.319 154.375 275.319 167H279.319C279.319 156.429 287.525 148 297.478 148V144ZM319.637 167C319.637 154.375 309.792 144 297.478 144V148C307.431 148 315.637 156.429 315.637 167H319.637ZM297.478 190C309.792 190 319.637 179.625 319.637 167H315.637C315.637 177.571 307.431 186 297.478 186V190ZM275.319 167C275.319 179.625 285.163 190 297.478 190V186C287.525 186 279.319 177.571 279.319 167H275.319ZM387.603 87.8C387.603 77.2288 395.809 68.8 405.762 68.8V64.8C393.448 64.8 383.603 75.1752 383.603 87.8H387.603ZM405.762 106.8C395.809 106.8 387.603 98.3712 387.603 87.8H383.603C383.603 100.425 393.448 110.8 405.762 110.8V106.8ZM423.922 87.8C423.922 98.3712 415.715 106.8 405.762 106.8V110.8C418.077 110.8 427.922 100.425 427.922 87.8H423.922ZM405.762 68.8C415.715 68.8 423.922 77.2288 423.922 87.8H427.922C427.922 75.1752 418.077 64.8 405.762 64.8V68.8ZM21.2794 180.2C21.2794 169.629 29.4858 161.2 39.4387 161.2V157.2C27.1242 157.2 17.2794 167.575 17.2794 180.2H21.2794ZM39.4387 199.2C29.4858 199.2 21.2794 190.771 21.2794 180.2H17.2794C17.2794 192.825 27.1242 203.2 39.4387 203.2V199.2ZM57.598 180.2C57.598 190.771 49.3916 199.2 39.4387 199.2V203.2C51.7532 203.2 61.598 192.825 61.598 180.2H57.598ZM39.4387 161.2C49.3916 161.2 57.598 169.629 57.598 180.2H61.598C61.598 167.575 51.7532 157.2 39.4387 157.2V161.2ZM377.02 247.28C384.123 247.28 389.519 248.278 393.353 250.122L395.087 246.518C390.495 244.309 384.425 243.28 377.02 243.28V247.28ZM374.639 247.108C375.615 247.216 376.425 247.28 377.02 247.28V243.28C376.655 243.28 376.026 243.237 375.081 243.132L374.639 247.108ZM372.06 246.96C372.666 246.96 373.531 247.007 374.679 247.112L375.041 243.128C373.843 243.019 372.841 242.96 372.06 242.96V246.96ZM369.783 247.787C370.624 247.187 371.372 246.96 372.06 246.96V242.96C370.402 242.96 368.857 243.533 367.458 244.533L369.783 247.787ZM368.94 248.96C368.94 248.65 369.037 248.286 369.73 247.824L367.511 244.496C365.963 245.528 364.94 247.03 364.94 248.96H368.94ZM369.172 253.973C369.018 252.33 368.94 250.659 368.94 248.96H364.94C364.94 250.781 365.023 252.576 365.189 254.347L369.172 253.973ZM369.56 256.997C369.51 256.645 369.379 255.627 369.165 253.912L365.196 254.408C365.408 256.107 365.544 257.168 365.6 257.563L369.56 256.997ZM370.455 265.855C370.239 262.885 369.942 259.941 369.564 257.023L365.597 257.537C365.965 260.379 366.255 263.249 366.466 266.145L370.455 265.855ZM370.78 276.96C370.78 272.507 370.673 268.8 370.455 265.852L366.466 266.148C366.674 268.96 366.78 272.56 366.78 276.96H370.78ZM370.209 288.371C370.591 284.773 370.78 280.969 370.78 276.96H366.78C366.78 280.844 366.597 284.507 366.231 287.949L370.209 288.371ZM367.26 290.08C367.469 290.08 367.609 290.086 367.694 290.093C367.736 290.097 367.749 290.099 367.741 290.098C367.739 290.097 367.68 290.088 367.588 290.057L368.853 286.263C368.338 286.091 367.695 286.08 367.26 286.08V290.08ZM365.942 290.482C366.38 290.201 366.806 290.08 367.26 290.08V286.08C366.008 286.08 364.834 286.439 363.779 287.118L365.942 290.482ZM365.82 290.64C365.82 290.585 365.826 290.558 365.828 290.551C365.829 290.547 365.828 290.553 365.821 290.564C365.815 290.575 365.812 290.577 365.82 290.569C365.828 290.561 365.854 290.537 365.909 290.503L363.812 287.097C362.54 287.879 361.82 289.131 361.82 290.64H365.82ZM368.779 292.96C367.481 292.582 366.72 292.137 366.308 291.74C365.952 291.397 365.82 291.064 365.82 290.64H361.82C361.82 292.189 362.422 293.55 363.533 294.62C364.587 295.636 366.027 296.325 367.662 296.8L368.779 292.96ZM378.06 294.08C374.578 294.08 371.479 293.696 368.747 292.95L367.694 296.81C370.828 297.664 374.289 298.08 378.06 298.08V294.08ZM389.431 293.016C386.548 293.712 382.774 294.08 378.06 294.08V298.08C382.947 298.08 387.066 297.702 390.37 296.904L389.431 293.016ZM396.22 290.263C394.667 291.314 392.428 292.254 389.408 293.022L390.393 296.898C393.666 296.066 396.387 294.979 398.461 293.577L396.22 290.263ZM401.884 285.669C399.867 287.582 397.986 289.102 396.242 290.249L398.439 293.591C400.428 292.284 402.494 290.604 404.637 288.571L401.884 285.669ZM406.215 279.228C405.079 281.944 403.632 284.062 401.907 285.647L404.614 288.593C406.836 286.551 408.588 283.922 409.905 280.772L406.215 279.228ZM407.9 271.44C407.9 273.855 407.356 276.45 406.21 279.24L409.91 280.76C411.218 277.576 411.9 274.465 411.9 271.44H407.9ZM406.382 262.788C407.369 265.091 407.9 267.955 407.9 271.44H411.9C411.9 267.565 411.312 264.136 410.059 261.212L406.382 262.788ZM402.39 256.271C404.001 258.126 405.332 260.288 406.376 262.774L410.064 261.226C408.869 258.378 407.32 255.847 405.41 253.649L402.39 256.271ZM393.381 250.135C397.498 252.039 400.464 254.11 402.407 256.291L405.393 253.629C402.964 250.903 399.476 248.547 395.06 246.505L393.381 250.135ZM375.651 290.533C377.085 290.772 378.887 290.88 381.02 290.88V286.88C378.993 286.88 377.436 286.775 376.309 286.587L375.651 290.533ZM374.86 275.36C374.86 280.8 374.569 285.068 374.011 288.211L377.95 288.909C378.565 285.438 378.86 280.907 378.86 275.36H374.86ZM374.383 260.503C374.702 266.674 374.86 271.622 374.86 275.36H378.86C378.86 271.524 378.698 266.499 378.378 260.297L374.383 260.503ZM374.22 257.04C374.22 257.754 374.278 258.935 374.385 260.533L378.376 260.267C378.269 258.665 378.22 257.606 378.22 257.04H374.22ZM373.98 252.24C373.98 253.596 374.065 255.255 374.227 257.206L378.213 256.874C378.056 254.985 377.98 253.444 377.98 252.24H373.98ZM386.78 251.16C383.729 250.539 380.121 250.24 375.98 250.24V254.24C379.946 254.24 383.271 254.528 385.981 255.08L386.78 251.16ZM394.716 254.061C392.484 252.674 389.808 251.721 386.744 251.153L386.016 255.087C388.712 255.586 390.89 256.393 392.604 257.459L394.716 254.061ZM401.369 261.186C399.908 258.263 397.664 255.889 394.714 254.06L392.606 257.46C394.99 258.937 396.693 260.777 397.791 262.974L401.369 261.186ZM403.5 271.36C403.5 267.504 402.82 264.087 401.369 261.186L397.791 262.974C398.901 265.193 399.5 267.963 399.5 271.36H403.5ZM400.243 281.729C402.422 278.702 403.5 275.222 403.5 271.36H399.5C399.5 274.432 398.658 277.084 396.997 279.391L400.243 281.729ZM391.878 288.527C395.301 286.902 398.102 284.644 400.232 281.744L397.009 279.376C395.299 281.703 393.033 283.551 390.163 284.913L391.878 288.527ZM381.02 290.88C384.822 290.88 388.44 290.1 391.853 288.539L390.188 284.901C387.307 286.22 384.258 286.88 381.02 286.88V290.88ZM455.915 293.585C455.317 292.803 454.808 291.949 454.39 291.019L450.742 292.661C451.284 293.864 451.948 294.983 452.737 296.015L455.915 293.585ZM457.846 294.4C456.814 294.4 456.284 294.078 455.926 293.6L452.726 296C453.967 297.655 455.784 298.4 457.846 298.4V294.4ZM459.504 293.921C459.203 294.18 458.717 294.4 457.846 294.4V298.4C459.428 298.4 460.915 297.98 462.107 296.959L459.504 293.921ZM460.006 292.48C460.006 293.313 459.767 293.694 459.496 293.929L462.116 296.951C463.445 295.799 464.006 294.207 464.006 292.48H460.006ZM459.023 290.648C459.425 291.302 459.695 291.805 459.858 292.172C459.939 292.355 459.982 292.477 460.003 292.549C460.026 292.631 460.006 292.596 460.006 292.48H464.006C464.006 291.776 463.752 291.083 463.514 290.548C463.25 289.955 462.88 289.285 462.429 288.552L459.023 290.648ZM455.214 283.362C456.368 286.001 457.64 288.436 459.03 290.66L462.422 288.54C461.146 286.498 459.963 284.239 458.878 281.758L455.214 283.362ZM451.342 273.605C452.838 277.451 454.122 280.689 455.194 283.316L458.898 281.804C457.837 279.205 456.561 275.989 455.07 272.155L451.342 273.605ZM449.667 269.377L451.347 273.617L455.065 272.143L453.385 267.903L449.667 269.377ZM444.66 257.055C445.972 259.994 447.637 264.09 449.659 269.357L453.393 267.923C451.361 262.63 449.667 258.459 448.312 255.425L444.66 257.055ZM440.163 248.6C441.918 251.337 443.413 254.146 444.648 257.028L448.324 255.452C446.999 252.361 445.4 249.357 443.529 246.44L440.163 248.6ZM439.232 247.174C439.231 247.173 439.314 247.263 439.493 247.527C439.66 247.77 439.868 248.103 440.122 248.534L443.57 246.506C443.052 245.625 442.534 244.82 442.06 244.346L439.232 247.174ZM439.092 247.072C439.164 247.088 439.184 247.102 439.174 247.096C439.169 247.094 439.158 247.087 439.146 247.076C439.133 247.066 439.12 247.053 439.109 247.04L442.182 244.48C441.584 243.761 440.791 243.352 439.96 243.168L439.092 247.072ZM437.366 246.88C437.825 246.88 438.181 246.898 438.445 246.928C438.725 246.959 438.829 246.995 438.824 246.993L440.228 243.247C439.436 242.95 438.398 242.88 437.366 242.88V246.88ZM435.967 247.282C436.384 247.014 436.834 246.88 437.366 246.88V242.88C436.084 242.88 434.881 243.226 433.804 243.918L435.967 247.282ZM435.075 248.094C435.185 247.874 435.404 247.607 435.878 247.336L433.894 243.864C432.874 244.446 432.027 245.246 431.497 246.306L435.075 248.094ZM429.258 259.406C430.727 256.258 432.652 252.512 435.039 248.162L431.533 246.238C429.119 250.635 427.151 254.462 425.634 257.714L429.258 259.406ZM424.507 270.811C426.26 266.351 427.847 262.543 429.27 259.381L425.622 257.739C424.165 260.977 422.552 264.849 420.784 269.349L424.507 270.811ZM421.298 278.676L424.498 270.836L420.794 269.324L417.594 277.164L421.298 278.676ZM417.211 287.812C418.156 285.553 419.504 282.54 421.26 278.763L417.632 277.077C415.868 280.874 414.495 283.94 413.521 286.268L417.211 287.812ZM415.323 293.852C415.722 291.958 416.35 289.938 417.22 287.79L413.512 286.29C412.568 288.622 411.863 290.868 411.409 293.028L415.323 293.852ZM415.777 293.852C415.503 293.699 415.412 293.584 415.39 293.551C415.379 293.534 415.376 293.525 415.374 293.519C415.372 293.512 415.366 293.488 415.366 293.44H411.366C411.366 295.238 412.399 296.551 413.835 297.348L415.777 293.852ZM418.086 294.32C417.195 294.32 416.395 294.14 415.662 293.793L413.95 297.407C415.243 298.02 416.631 298.32 418.086 298.32V294.32ZM419.171 294.091C419.167 294.098 419.154 294.132 419.038 294.182C418.894 294.244 418.601 294.32 418.086 294.32V298.32C419.805 298.32 421.603 297.812 422.601 296.149L419.171 294.091ZM421.476 288.546C420.522 291.303 419.748 293.114 419.164 294.103L422.608 296.137C423.41 294.78 424.29 292.644 425.256 289.854L421.476 288.546ZM423.218 284.068C422.762 285.095 422.182 286.589 421.485 288.521L425.247 289.879C425.936 287.971 426.477 286.585 426.874 285.692L423.218 284.068ZM425.126 280.96C424.413 281.91 423.79 282.919 423.257 283.986L426.835 285.774C427.261 284.921 427.758 284.117 428.326 283.36L425.126 280.96ZM433.285 280.486C430.596 280.271 428.403 280.16 426.726 280.16V284.16C428.249 284.16 430.323 284.262 432.966 284.474L433.285 280.486ZM436.399 280.646C435.002 280.538 433.899 280.48 433.126 280.48V284.48C433.74 284.48 434.717 284.528 436.093 284.634L436.399 280.646ZM440.166 280.72C439.022 280.72 437.741 280.694 436.32 280.641L436.172 284.639C437.631 284.693 438.963 284.72 440.166 284.72V280.72ZM448.123 280.02C444.809 280.494 442.166 280.72 440.166 280.72V284.72C442.432 284.72 445.283 284.466 448.689 283.98L448.123 280.02ZM451.968 284.763C451.445 283.31 450.817 282.012 450.07 280.891L446.742 283.109C447.274 283.908 447.767 284.903 448.204 286.117L451.968 284.763ZM452.903 287.097L451.943 284.697L448.229 286.183L449.189 288.583L452.903 287.097ZM454.404 291.052C453.949 289.989 453.459 288.703 452.937 287.188L449.155 288.492C449.699 290.07 450.223 291.451 450.728 292.628L454.404 291.052ZM447.896 274.588C447.088 272.871 445.889 269.806 444.289 265.327L440.522 266.673C442.123 271.154 443.378 274.382 444.276 276.292L447.896 274.588ZM439.446 278C442.333 278 444.722 277.812 446.54 277.388L445.631 273.492C444.25 273.815 442.212 274 439.446 274V278ZM428.158 277.345C431.664 277.783 435.428 278 439.446 278V274C435.57 274 431.974 273.79 428.654 273.375L428.158 277.345ZM431.2 263.541C429.8 266.173 428.242 269.904 426.524 274.683L430.288 276.037C431.983 271.322 433.465 267.8 434.732 265.419L431.2 263.541ZM435.586 253.824C434.6 256.317 433.131 259.572 431.168 263.605L434.764 265.355C436.748 261.281 438.266 257.923 439.306 255.296L435.586 253.824ZM444.297 265.349C442.621 260.484 440.918 256.535 439.172 253.55L435.72 255.57C437.281 258.239 438.884 261.916 440.515 266.651L444.297 265.349ZM502.938 282.24C502.938 284.474 502.462 286.067 501.691 287.185L504.984 289.455C506.347 287.48 506.938 285.019 506.938 282.24H502.938ZM501.474 276.527C502.38 277.788 502.938 279.627 502.938 282.24H506.938C506.938 279.093 506.269 276.345 504.722 274.193L501.474 276.527ZM496.464 272.192C498.88 273.652 500.493 275.101 501.45 276.493L504.746 274.227C503.356 272.206 501.236 270.402 498.532 268.768L496.464 272.192ZM489.76 268.723C492.064 269.695 494.292 270.848 496.445 272.181L498.551 268.779C496.224 267.339 493.812 266.091 491.316 265.038L489.76 268.723ZM480.934 265.145C484.495 266.526 487.429 267.716 489.745 268.716L491.331 265.044C488.953 264.017 485.968 262.807 482.381 261.415L480.934 265.145ZM474.618 258.72C474.618 260.337 475.374 261.692 476.536 262.743C477.655 263.755 479.194 264.538 480.998 265.168L482.317 261.392C480.761 260.848 479.781 260.285 479.22 259.777C478.702 259.308 478.618 258.969 478.618 258.72H474.618ZM478.094 252.75C475.842 254.058 474.618 256.12 474.618 258.72H478.618C478.618 257.587 479.047 256.822 480.102 256.21L478.094 252.75ZM484.778 250.96C482.314 250.96 480.052 251.55 478.053 252.775L480.143 256.185C481.451 255.384 482.975 254.96 484.778 254.96V250.96ZM491.166 252.082C489.348 251.303 487.193 250.96 484.778 250.96V254.96C486.843 254.96 488.421 255.257 489.59 255.758L491.166 252.082ZM493.503 253.02C493.566 253.035 493.564 253.039 493.42 252.987C493.305 252.945 493.144 252.883 492.931 252.799C492.507 252.632 491.912 252.39 491.143 252.072L489.613 255.768C490.39 256.09 491.009 256.341 491.465 256.521C491.853 256.674 492.269 256.834 492.533 256.9L493.503 253.02ZM497.089 255.988C496.144 254.748 495.081 253.716 493.864 253.148L492.172 256.772C492.554 256.951 493.145 257.412 493.907 258.412L497.089 255.988ZM498.415 257.375C498.094 257.094 497.632 256.617 497.016 255.898L493.979 258.502C494.643 259.276 495.249 259.919 495.781 260.385L498.415 257.375ZM498.378 257.44C498.418 257.44 498.455 257.445 498.485 257.451C498.515 257.458 498.534 257.465 498.539 257.468C498.549 257.472 498.506 257.455 498.415 257.375L495.781 260.385C496.45 260.971 497.326 261.44 498.378 261.44V257.44ZM500.592 256.959C500.476 257.085 499.962 257.44 498.378 257.44V261.44C500.313 261.44 502.253 261.049 503.523 259.681L500.592 256.959ZM501.178 255.76C501.178 256.134 501.056 256.493 500.644 256.906L503.472 259.734C504.553 258.654 505.178 257.306 505.178 255.76H501.178ZM500.119 253.208C500.827 253.883 501.178 254.686 501.178 255.76H505.178C505.178 253.634 504.409 251.77 502.877 250.312L500.119 253.208ZM495.31 249.899C497.603 251.202 499.173 252.307 500.118 253.208L502.877 250.312C501.583 249.079 499.686 247.785 497.286 246.421L495.31 249.899ZM491.003 247.996C492.44 248.427 493.867 249.053 495.286 249.885L497.309 246.435C495.635 245.453 493.916 244.693 492.153 244.164L491.003 247.996ZM485.898 247.28C487.93 247.28 489.6 247.529 490.945 247.977L492.21 244.183C490.356 243.565 488.239 243.28 485.898 243.28V247.28ZM481.144 248.17C483.462 247.537 485.006 247.28 485.898 247.28V243.28C484.443 243.28 482.467 243.663 480.092 244.31L481.144 248.17ZM476.392 249.709C477.254 249.278 478.784 248.76 481.103 248.18L480.133 244.3C477.758 244.893 475.875 245.495 474.603 246.131L476.392 249.709ZM471.913 253.499C473.175 251.771 474.655 250.532 476.354 249.727L474.642 246.113C472.287 247.228 470.301 248.923 468.682 251.141L471.913 253.499ZM470.218 258.24C470.218 256.701 470.736 255.129 471.919 253.491L468.676 251.149C467.086 253.351 466.218 255.725 466.218 258.24H470.218ZM471.948 263.511C470.766 261.783 470.218 260.038 470.218 258.24H466.218C466.218 260.922 467.056 263.444 468.647 265.769L471.948 263.511ZM477.499 267.964C474.896 266.688 473.093 265.183 471.948 263.511L468.647 265.769C470.276 268.15 472.686 270.059 475.737 271.556L477.499 267.964ZM486.654 272.038C484.682 271.33 481.643 269.983 477.494 267.962L475.742 271.558C479.913 273.59 483.114 275.017 485.302 275.802L486.654 272.038ZM495.033 276.091C492.969 274.513 490.12 273.174 486.601 272.02L485.354 275.82C488.662 276.906 491.04 278.073 492.603 279.269L495.033 276.091ZM498.618 282.88C498.618 280.086 497.316 277.787 495.01 276.075L492.625 279.285C494.053 280.346 494.618 281.514 494.618 282.88H498.618ZM494.714 288.179C495.803 287.501 496.74 286.76 497.423 285.93C498.114 285.089 498.618 284.062 498.618 282.88H494.618C494.618 282.886 494.618 282.921 494.586 282.997C494.552 283.079 494.48 283.211 494.333 283.39C494.029 283.76 493.486 284.232 492.602 284.781L494.714 288.179ZM486.538 290.64C489.311 290.64 492.036 289.785 494.687 288.195L492.629 284.765C490.479 286.055 488.458 286.64 486.538 286.64V290.64ZM478.986 288.777C481.201 290.043 483.741 290.64 486.538 290.64V286.64C484.321 286.64 482.488 286.171 480.97 285.304L478.986 288.777ZM473.519 282.828C474.975 285.39 476.762 287.404 478.927 288.742L481.029 285.338C479.567 284.436 478.208 282.983 476.997 280.852L473.519 282.828ZM472.378 281.44C472.752 281.721 473.141 282.156 473.515 282.821L477.001 280.859C476.415 279.817 475.684 278.919 474.778 278.24L472.378 281.44ZM471.498 281.12C471.78 281.12 472.058 281.2 472.378 281.44L474.778 278.24C473.818 277.52 472.709 277.12 471.498 277.12V281.12ZM469.847 281.517C469.948 281.407 470.324 281.12 471.498 281.12V277.12C469.791 277.12 468.088 277.526 466.908 278.803L469.847 281.517ZM469.418 283.28C469.418 282.164 469.679 281.699 469.847 281.517L466.908 278.803C465.797 280.007 465.418 281.623 465.418 283.28H469.418ZM470.386 286.571C469.772 285.74 469.418 284.68 469.418 283.28H465.418C465.418 285.4 465.971 287.327 467.169 288.949L470.386 286.571ZM475.088 290.935C472.707 288.977 471.155 287.507 470.326 286.494L467.23 289.027C468.321 290.36 470.129 292.036 472.548 294.025L475.088 290.935ZM476.501 292.18L475.141 290.98L472.495 293.98L473.855 295.18L476.501 292.18ZM480.337 293.452C478.513 292.879 477.077 292.346 476.005 291.859L474.35 295.501C475.625 296.08 477.229 296.668 479.138 297.268L480.337 293.452ZM484.778 294.16C483.573 294.16 482.08 293.935 480.273 293.433L479.203 297.287C481.235 297.852 483.103 298.16 484.778 298.16V294.16ZM491.285 293.412C489.139 293.911 486.971 294.16 484.778 294.16V298.16C487.277 298.16 489.749 297.876 492.191 297.308L491.285 293.412ZM496.781 291.17C495.212 292.12 493.373 292.877 491.242 293.422L492.233 297.298C494.689 296.669 496.903 295.773 498.854 294.59L496.781 291.17ZM501.691 287.185C500.867 288.38 499.318 289.719 496.826 291.144L498.81 294.616C501.544 293.054 503.675 291.354 504.984 289.455L501.691 287.185Z" fill="black" mask="url(#path-1-outside-1_1_48)"/>
</svg>
